<svg width="18" height="15" viewBox="0 0 18 15" fill="none" xmlns="http://www.w3.org/2000/svg">
<path fill-rule="evenodd" clip-rule="evenodd" d="M0 0.75C0 1.16421 0.335787 1.5 0.75 1.5L17.25 1.5C17.6642 1.5 18 1.16421 18 0.75C18 0.335787 17.6642 0 17.25 0H0.75C0.335786 0 0 0.335786 0 0.75ZM0 9.75C0 10.1642 0.335787 10.5 0.75 10.5H17.25C17.6642 10.5 18 10.1642 18 9.75C18 9.33579 17.6642 9 17.25 9H0.75C0.335786 9 0 9.33579 0 9.75ZM0.75 6C0.335786 6 0 5.66421 0 5.25C0 4.83579 0.335786 4.5 0.75 4.5L12.25 4.5C12.6642 4.5 13 4.83579 13 5.25C13 5.66421 12.6642 6 12.25 6L0.75 6ZM0 14.25C0 14.6642 0.335786 15 0.749999 15L8.25 15C8.66421 15 9 14.6642 9 14.25C9 13.8358 8.66421 13.5 8.25 13.5L0.75 13.5C0.335786 13.5 0 13.8358 0 14.25Z" fill="#000000"/>
</svg>
