<svg width="183" height="184" viewBox="0 0 183 184" fill="none" xmlns="http://www.w3.org/2000/svg">
<path d="M120.128 64.3404H170.043V14.4255" stroke="black" stroke-width="20" stroke-linecap="round"/>
<path d="M150.361 35.2836L157.603 28.3881L157.603 28.3881L150.361 35.2836ZM173.494 51.127C175.94 56.0788 173.909 62.0757 168.957 64.5215C164.005 66.9673 158.008 64.9358 155.562 59.9841L173.494 51.127ZM20 92C20 131.822 52.0692 164 91.5 164V184C40.9084 184 3.8147e-06 142.752 3.8147e-06 92H20ZM91.5 164C130.931 164 163 131.822 163 92H183C183 142.752 142.092 184 91.5 184V164ZM91.5 20C52.0692 20 20 52.1777 20 92H3.8147e-06C3.8147e-06 41.2476 40.9084 0 91.5 0V20ZM143.119 42.1791C130.086 28.4903 111.78 20 91.5 20V0C117.498 0 140.966 10.9139 157.603 28.3881L143.119 42.1791ZM155.562 59.9841C152.32 53.4202 148.11 47.4216 143.119 42.1791L157.603 28.3881C163.974 35.079 169.351 42.7381 173.494 51.127L155.562 59.9841Z" fill="black"/>
</svg>
