<svg width="165" height="218" viewBox="0 0 165 218" fill="none" xmlns="http://www.w3.org/2000/svg">
<path d="M41.6178 213.862L41.7064 213.784L41.1944 213.419C37.2339 210.593 33.7222 207.1 30.7952 203.073L30.7907 203.067L30.786 203.061C27.5444 198.876 24.5408 194.485 21.7915 189.913L21.7917 189.913L21.7848 189.902C15.3348 179.767 10.2759 168.689 6.76396 157.008L6.76256 157.004C2.54161 143.429 0.5 130.425 0.5 117.713C0.5 103.521 3.36206 91.1581 8.94113 80.7841L8.94123 80.7842L8.94618 80.7745C13.077 72.6755 19.1481 65.912 26.5277 61.1804L26.5277 61.1804L26.535 61.1756C33.6828 56.4137 41.8922 53.8093 50.2989 53.633C53.221 53.6336 56.3791 54.0879 59.7443 54.9626C62.1616 55.6974 65.1145 56.8584 68.7508 58.315C70.9748 59.2345 72.7171 59.9822 74.024 60.5431L74.1726 60.6069C75.4697 61.1636 76.345 61.5383 76.8064 61.6928C79.5502 62.7667 81.8887 63.2478 83.757 63.2478C85.2013 63.2478 87.1842 62.7613 89.3651 62.0521L89.3763 62.0484L89.3872 62.0443C89.5481 61.9835 89.7282 61.9164 89.9274 61.8422C91.2368 61.3545 93.3683 60.5606 96.2497 59.2384C98.2732 58.4475 100.043 57.7216 101.579 57.0917C102.513 56.7085 103.361 56.3608 104.126 56.0556C107.265 55.0628 110.269 54.1566 112.936 53.7009C116.109 53.1644 119.329 53.0223 122.533 53.2774L122.537 53.2777C128.105 53.6681 133.59 54.9333 138.817 57.0334C147.208 60.6573 154.015 66.275 159.123 74.2342C157.054 75.6381 155.108 77.2389 153.307 79.0169C149.141 82.9793 145.593 87.6294 142.797 92.7906L142.793 92.7988C139.132 99.8655 137.235 107.824 137.284 115.904L137.284 115.908C137.418 125.812 139.787 134.557 144.468 142.127C147.904 147.728 152.372 152.522 157.6 156.211C160.1 158.018 162.289 159.306 164.391 160.205C163.409 163.447 162.36 166.588 161.132 169.702C158.221 177.002 154.692 184.001 150.591 190.611C146.925 196.32 144.06 200.558 141.891 203.372C138.506 207.673 135.265 210.934 132.013 213.198L132.009 213.201C128.454 215.729 124.257 217.078 119.995 217.078H119.985L119.974 217.078C117.077 217.198 114.181 216.822 111.393 215.966C108.964 215.086 106.564 214.134 104.205 213.048C101.71 211.819 99.1367 210.78 96.5049 209.938L96.4952 209.935L96.4854 209.932C89.947 208.131 83.091 208.119 76.5472 209.898L76.539 209.9L76.5309 209.903C73.8657 210.725 71.2991 211.686 68.7626 212.868C68.7617 212.868 68.7608 212.868 68.76 212.869L68.1575 213.14C64.9504 214.586 62.8244 215.544 61.573 215.965C58.906 216.802 56.1402 217.325 53.3444 217.5C49.2571 217.497 45.4257 216.302 41.6178 213.862ZM96.9496 46.6335L96.9976 46.6355C92.0716 48.9949 87.3485 50.0075 82.6729 49.7144C81.9248 44.0501 82.7759 38.2294 84.9848 31.8341C86.9065 26.2979 89.7454 21.1819 93.3631 16.7327C97.1824 12.0504 101.815 8.21471 107 5.43888L107.006 5.43575C112.368 2.47506 117.464 0.844723 122.32 0.52633C122.889 6.45703 122.22 12.3101 120.18 18.6371C118.241 24.3807 115.406 29.7272 111.797 34.4484C108.118 39.1345 103.605 42.9829 98.5246 45.7696L96.9496 46.6335Z" fill="white" stroke="black"/>
</svg>
