<svg width="222" height="216" viewBox="0 0 222 216" fill="none" xmlns="http://www.w3.org/2000/svg">
<path d="M49.1998 130.992L41.4723 159.054L13.2285 159.635C4.78774 144.406 0 126.982 0 108.466C0 90.5607 4.47642 73.6759 12.4112 58.8086H12.4172L37.5622 63.293L48.5772 87.6061C46.2718 94.1441 45.0152 101.163 45.0152 108.466C45.0161 116.392 46.492 123.986 49.1998 130.992Z" fill="#FBBB00"/>
<path d="M220.061 88.2944C221.335 94.8261 222 101.572 222 108.466C222 116.196 221.165 123.737 219.573 131.01C214.169 155.762 200.05 177.375 180.491 192.669L180.485 192.663L148.814 191.091L144.331 163.872C157.31 156.468 167.452 144.881 172.795 131.01H113.44V88.2944H173.661H220.061Z" fill="#518EF8"/>
<path d="M180.485 192.665L180.491 192.67C161.469 207.544 137.305 216.443 111 216.443C68.7288 216.443 31.977 193.46 13.2289 159.637L49.2002 130.994C58.574 155.33 82.7074 172.654 111 172.654C123.161 172.654 134.554 169.456 144.331 163.873L180.485 192.665Z" fill="#28B446"/>
<path d="M181.851 25.3483L145.892 53.9855C135.774 47.8334 123.814 44.2795 111 44.2795C82.0671 44.2795 57.4824 62.398 48.5781 87.6065L12.4178 58.809H12.4117C30.8854 24.1618 68.1007 0.490234 111 0.490234C137.933 0.490234 162.627 9.82256 181.851 25.3483Z" fill="#F14336"/>
</svg>
