<svg width="24" height="24" viewBox="0 0 24 24" fill="none" xmlns="http://www.w3.org/2000/svg">
<path fill-rule="evenodd" clip-rule="evenodd" d="M20.7068 4.70711C21.0973 4.31658 21.0973 3.68342 20.7068 3.29289C20.3162 2.90237 19.6831 2.90237 19.2926 3.29289L11.9997 10.5858L4.70677 3.2929C4.31625 2.90237 3.68308 2.90237 3.29256 3.2929C2.90203 3.68342 2.90203 4.31659 3.29256 4.70711L10.5854 12L3.29256 19.2929C2.90203 19.6834 2.90203 20.3166 3.29256 20.7071C3.68308 21.0976 4.31625 21.0976 4.70677 20.7071L11.9997 13.4142L19.2926 20.7071C19.6831 21.0976 20.3162 21.0976 20.7068 20.7071C21.0973 20.3166 21.0973 19.6834 20.7068 19.2929L13.4139 12L20.7068 4.70711Z" fill="#393939"/>
</svg>
